<svg xmlns="http://www.w3.org/2000/svg" version="1.1" xmlns:xlink="http://www.w3.org/1999/xlink" xmlns:svgjs="http://svgjs.dev/svgjs" width="2000" height="2250" viewBox="0 0 2000 2250"><g transform="matrix(1,0,0,1,0,0)"><svg viewBox="0 0 320 360" data-background-color="#0c1d36" preserveAspectRatio="xMidYMid meet" height="2250" width="2000" xmlns="http://www.w3.org/2000/svg" xmlns:xlink="http://www.w3.org/1999/xlink"><g id="tight-bounds" transform="matrix(1,0,0,1,0,0)"><svg viewBox="0 0 320 360" height="360" width="320"><g><svg></svg></g><g><svg viewBox="0 0 320 360" height="360" width="320"><g><path xmlns="http://www.w3.org/2000/svg" d="M165.217 303.356c-1.404-1.755-2.809-0.702-2.808-1.755-8.426 2.106-24.223-3.511-30.894-2.809 1.404-2.106-2.106-1.755-2.106-3.159-1.404 2.106-2.809 0-4.915 0.702-2.106-5.266-10.532-1.404-11.585-8.075-4.915 0-6.67-2.809-11.586-5.617 0.351-0.351 0.702-0.351 1.054-0.702-2.457-0.351-2.457-1.755-4.564-1.755l0.702-1.405c-3.862-0.702-5.266-6.67-10.883-8.776-1.755-0.351-5.617-6.319-7.723-7.724-1.053-0.702-2.809-0.702-0.352-1.053-0.351-0.351-0.351-1.053 0-1.404-2.457-0.702-2.809-2.809-5.968-3.862-0.351-1.053 0.702-1.755 0-2.457-0.702-0.351-1.755 0.351-2.457 0-0.351 6.319 6.67 7.021 8.777 12.287-0.702-0.702-1.755-2.809-2.458-1.404-0.351 1.053 2.809 4.915 2.809 2.808-1.053 0.702-1.404-1.053-0.703-1.404 1.053 1.755 3.16 1.404 3.16 2.809-1.053 1.053-2.457-1.053-2.106 0.702 3.16 1.755 2.809 3.511 4.563 5.968-1.404-1.755-1.755 1.404-3.159 0-0.351-5.266-6.319-4.213-6.319-9.479-0.702-1.755-1.404-0.351-2.458-1.053 1.404-1.404-4.213-6.319-4.213-4.564-1.755-2.106-0.702-2.809-1.053-4.213-1.404-0.351-0.351 1.404-1.404 0.351 1.404-2.457-1.755-5.617-3.862-8.074l1.405-0.702c-2.457-1.404-2.809-4.213-4.564-7.373-2.106 3.16 4.213 10.181 3.159 11.585 0 0.351 2.457 3.16 3.16 4.564 2.809 4.915 4.915 10.883 8.777 13.692-0.702-0.351-0.351-2.457 0.702-1.404 0 1.053-0.702 2.106-0.702 3.159 2.106 2.106 3.862 3.862 5.968 5.968-4.564-2.809-9.128-5.617-12.288-9.83 1.755-0.351 3.511 2.809 4.915 2.458-3.511-2.809-2.457-3.862-3.861-7.372-1.404-1.053 0.351 1.404-1.054 1.755-4.564-4.213-8.075-6.67-10.181-10.532 0.351-0.351 0.702-0.702 0.703-1.404-0.351-0.351-0.351-0.351-0.703-0.702 2.106 2.106 2.809 3.862 5.266 4.212-1.053-1.053 0-1.404-1.404-2.457-0.702-1.404-1.755 0.702-2.457-0.351 0.702-1.053 0-2.457 0-3.511-0.702 0-1.404 0-1.756-1.053-0.702-0.351-1.053 0-1.404 0.702-0.351-0.351-0.351-1.053-0.702-1.404v-0.351c-0.351-0.351-0.702-1.053-1.053-1.405-2.809-7.372-4.564-17.202-8.426-23.521 1.053-4.213-0.702-12.638-1.755-14.745 1.053-1.755 0.351-9.83-0.351-11.234-1.755 0.702 0.351 4.564-1.404 5.617-1.755-7.723 1.053-16.5 0.351-23.521 0.702 0 1.404 0 1.404-0.351-1.053-1.053 0.702-3.16 0.351-5.617 1.404-3.16-3.16 4.564-3.16 7.723-0.351 0.702-1.755 0-1.404 1.756 0 2.457 0.702 7.372-0.702 10.883-0.702 0-0.702-0.702-1.404-0.351-0.351 1.755-0.702 3.862-1.053 5.617-0.351-0.702-0.702-1.755-0.703-2.107-1.755-8.777 0-18.958-0.702-26.33 1.404 0 1.404-2.106 2.458-2.808-0.351 2.809-1.053 6.319 0.702 7.021 1.404-13.692 4.213-28.787 10.532-43.532 4.564-10.883 11.234-21.766 19.308-30.543 0.702 1.053-0.351 3.511 0 4.564 7.021-7.372 11.585-16.149 19.309-21.064 0.351 1.755-3.16 3.16-3.16 4.564 3.16-3.16 4.213-2.106 7.724-3.159 1.053-1.404-1.404 0-1.756-1.405 2.106-1.404 3.511-3.16 4.915-4.212 0 0.351-0.351 0.351-0.351 0.702 3.862-1.053 4.213-3.16 7.022-3.862-0.351-0.351-1.053-0.702-2.107-0.351 0.702-0.351 1.755-1.053 2.809-1.404-0.351 0-0.351 0.351-0.702 0.351 2.106-1.053 0.351 0.351 0.351 1.053 0.351 0 0.702-0.351 0.702-0.351-2.106 1.404-3.511 2.106-4.213 4.564 1.053-0.702 1.404 0 2.809-1.054 1.404-0.702-0.351-1.755 0.702-2.457 1.053 0.702 2.457 0.351 3.51 0.351 0-0.702 0.351-1.404 1.054-1.755 0.351-0.702 0-1.053-0.352-1.053 0.351-0.351 0.702-0.351 1.405-0.703 0 0 0.351 0 0.351 0.351 5.968-2.809 12.638-5.266 18.957-7.372 3.862-0.351 8.777-0.351 10.883-2.808-0.702 0-1.404 0.351-1.755 0 0.351 0 1.053-0.351 1.404-0.351 0.702 0.702 1.755 0 0.702 1.404 0.351 0 0.351 0 0.703-0.351 0 0.351 0 0.351 0.351 0.702 0.351 0 0.702-0.351 1.053-1.053 0.351 0 0.702 0 1.053-0.351l-0.351 0.351c2.809-0.702 5.266-0.351 9.128-1.054 0-0.351 0-0.702 0-1.053 0.702 0 1.053-0.351 1.755-0.351v0.351c1.404-0.702 2.809 0.702 2.808 0 0.351 0 0.351 0 0.703 0 0 0.702-0.351 1.053-0.351 1.405 1.755 0 2.809 0 3.51-1.054-0.351-0.351-0.702-0.351-1.053-0.351 0.702 0 1.404-0.351 2.106-0.702 1.053 0.351 1.404 0.702 1.405 2.107 1.755-3.16 7.372 0.702 9.829 0 1.053 0 0.702-1.404 1.405-2.107 0.351 0 0.702 0 1.053 0 1.755 1.404 4.213 2.809 7.372 3.16-2.809-0.702 0.351-1.053 0.702-1.405-0.702 0-0.702-0.351-0.702-0.702 1.053 0 2.106 0.351 3.16 0.351 0 0.702 0.351 1.053 1.053 1.054 0.702 0 0.702-0.351 0.702-1.054 1.053 0 1.755 0 2.809 0.351-0.351 1.404 1.755 1.755 2.457 2.809-2.809-0.702-5.968-1.755-7.021 0 11.234 2.457 23.521 5.968 35.457 11.936 0 0 0 0 0 0.351h0.352c2.106 1.053 4.213 2.106 6.319 3.16 1.404 0.702 2.457 1.404 3.861 2.457 0 0.351 0 0.702 0.703 0.702h0.351c1.404 1.053 2.809 1.755 4.212 2.809 1.404 2.106 2.809 4.915 5.266 4.213 5.266 8.075 10.883 11.234 15.447 19.659 0.351-1.404 1.404 3.16 3.16 3.511-2.809-0.351 1.755 1.755-1.053 1.404 2.457 2.457 3.16 3.511 3.51 6.319-0.702-1.404-1.053-1.755-1.404-0.351-0.351 2.106 2.457-0.351 3.511 1.756-2.106 0-1.404 1.404-1.054 3.159 1.053-1.053 0.702-2.106 1.756-1.755 1.404 1.404-0.702 1.755-0.351 2.809 1.053-1.404 1.404-0.702 2.808 0-1.755 0.351 1.053 2.809-1.053 1.755 1.404 1.755 1.755 2.809 1.053 4.564-1.404-2.106-0.351-3.511-2.457-3.16 4.213 3.511 2.106 11.585 7.021 12.287-3.16 0.702 0 2.106-1.755 2.458 2.106 0.702 1.053 3.511 3.51 4.213-0.351 1.755-1.053 2.809-1.404 4.563 1.053 1.404 1.404 4.213 3.16 4.564-1.053 1.053-0.351 3.862-1.404 4.915 1.404-0.702 2.106-0.702 3.159 0.702-1.755 1.404-0.351 2.809-1.404 3.16 3.16 8.075-0.702 24.575 1.053 30.894-2.106-1.053-1.404 2.457-2.808 2.457 2.457 1.053 0.351 2.809 1.404 4.564-4.915 2.809 0 10.532-6.67 12.287 0.702 4.915-2.106 7.021-4.213 12.288-0.351-0.351-0.351-0.702-0.702-1.054-0.351 2.457-1.755 2.809-1.054 4.915l-1.404-0.702c0 3.862-5.968 5.968-7.372 11.936-0.351 1.755-5.617 6.319-7.022 8.777-0.702 1.053-0.351 2.809-1.053 0.351-0.351 0.351-1.053 0.351-1.404 0.351-0.351 2.457-2.457 3.16-3.16 6.319-0.702 0.351-1.755-0.702-2.457 0.351 0 0.702 0.702 1.755 0.351 2.458 6.319-0.351 6.319-7.723 11.234-10.181-0.351 1.053-2.457 2.106-1.053 2.808 1.053 0 4.213-3.511 2.457-3.159 1.053 0.702-1.053 1.404-1.404 1.053 1.755-1.404 1.053-3.16 2.458-3.511 1.053 0.702-1.053 2.457 1.053 2.107 1.404-3.16 3.16-3.511 5.266-5.266-1.404 1.404 1.755 1.755 0.351 3.159-5.266 1.053-3.511 7.021-8.777 7.724-1.404 1.053-0.351 1.404-0.702 2.457-1.755-1.053-5.617 4.915-4.213 4.564-1.755 1.755-2.809 1.053-4.212 1.404-0.351 1.404 1.404 0.351 0.702 1.405-2.457-1.053-5.617 2.457-7.724 4.915l-1.053-1.054c-1.053 2.809-3.862 3.16-7.021 5.266 3.511 1.755 9.479-5.617 11.234-4.564 0.351 0 3.16-2.809 4.213-3.861 4.564-3.511 10.181-6.319 12.287-10.181-0.351 0.702-2.457 0.702-1.404-0.351 1.053-0.351 2.106 0.351 3.159 0.351 5.617-7.723 12.638-14.043 17.905-23.17 0.351-0.351 0.702-1.053 1.053-1.756-0.702 2.106-1.755 3.862-2.458 5.968-5.617 3.862-7.723 15.096-14.393 16.851 0.351 3.862-3.16 4.915-4.915 9.479-1.053 1.404-1.755-1.053-2.809 0.702 1.053 4.915-8.777 4.564-8.425 9.128-0.702 0.351-1.755 0.702-2.458 1.404h-0.351c-0.351 0.351-0.351 0.351-0.702 0.702-1.755 1.053-3.16 2.106-4.564 3.16-4.915 2.809-11.585 4.915-16.851 7.723v-0.351c-1.404 0.702-3.16 0.351-2.809 1.756-1.053 0.702-2.106 1.404-3.159 2.106-0.351 0-0.351 0-0.702 0 0 0-0.351-0.351-0.702-0.351-0.702 0-0.702 0-1.054 0.351-4.564 0.351-10.532 2.457-12.287 3.862-1.755-1.053-9.83 0.702-11.234 1.404 0.702 1.053 2.809 0 4.564 0-1.053 0.351-2.106 0.702-2.458 1.404-0.351 0-0.351 0-0.702 0-0.351-1.053-1.404 0-1.755-0.351h0.351c-0.351-1.404-1.404-2.106-3.16-1.755 0 0.702 0 1.053-0.351 1.755 0.702 0 2.809-1.053 2.809 0-0.351 0-0.351 0.351 0 0.351-0.702 0.702-1.755 0.702-2.458 1.054-1.404 0-3.16 0-4.563 0-0.351-0.351-0.702-0.351-1.405-0.703-0.351 0.351-1.053 0.351-1.404 0.703-2.106 0-4.564 0.351-6.319 0.702 0-0.702 0-1.404-0.702-1.405-1.053 1.404-3.16-0.351-5.617 0.352-2.457-0.702 1.404 1.053 4.915 1.755-0.351 0.351-0.702 0.702-1.756 1.053M116.068 308.271c-4.915-4.564-15.096-6.67-16.851-10.181-2.809-0.351-7.021-5.617-10.532-6.319 1.755 0 0.351-1.053 0-1.755-0.702 0.702-1.404 1.053-2.106 1.053 0-2.809-2.809-4.564-5.266-6.319 1.755 1.053 3.16 1.755 5.266 2.106 0-0.702 0-1.404 0.702-1.404 2.457 2.457 5.266 4.915 8.425 7.372 4.213 3.862 25.979 13.692 29.841 15.447 0 0-0.702 1.404-0.351 1.404 1.755 1.053 3.16-1.053 3.511 1.404-5.617 0.702-7.723-3.16-12.639-2.808M277.909 226.824v0.351 0c-0.351 0 0-0.351 0-0.351M136.079 64.281c-0.351 0.351-0.702 0.351-0.702 0.351 0-0.351 0.351-0.351 0.702-0.351M129.409 66.036c0 0.351 0 0.351 0 0 0 0.351 0 0.351 0 0 0 0.351 0 0 0 0M106.238 73.408v0c0.351-0.351 0.351-0.351 0.703-0.351-0.351 0-0.702 0.351-0.703 0.351M162.409 61.823c-0.702 0-1.053 0-1.404-0.351 0.351 0 0.702 0 1.053 0h0.351c0 0 0 0 0 0.351M168.728 62.525c-0.351-0.351-1.404-0.702-2.457-0.702 0-0.351 0.351-0.702 0.351-0.702 0.351 0 0.702 0 1.053 0 0 0 0.351 0 0.351 0.351 0 0 0 0 0-0.351 0.351 0 0.351 0 0.702 0 0.351 0.702 0.702 1.053 0 1.404M180.313 63.579c-1.755 0.351-2.809-0.351-4.564-1.405 1.053 0 2.457 0.351 3.511 0.702 0.351 0 0.702 0.351 1.053 0.703M305.292 113.43c-0.702 0.351-1.053 0.351-1.755-1.053-5.617-11.936-15.798-29.138-30.543-43.532-14.394-14.745-33.702-26.681-51.255-33.001 1.053 0.351 2.457 1.053 1.755 1.756-15.447-5.968-30.192-9.479-44.234-10.883-37.915-5.968-77.585 2.106-108.128 21.766 0.351 0.702 0.351 1.053-0.702 1.755-11.234 7.021-27.032 19.309-39.671 35.458-12.638 16.149-22.468 36.511-26.681 54.766 0.351-1.053 0.702-2.809 1.405-2.107-9.128 36.16-6.67 67.053 5.968 93.735 0.702-0.702-1.755-4.213 0.351-3.862 1.404 3.862 3.16 8.075 5.266 11.936 2.457 5.617 5.266 12.989 9.128 14.745-9.83-19.309-16.5-41.426-17.203-61.085 1.404 2.809 1.053 8.777 3.16 11.234 0.702-13.34-2.457-31.245 2.106-43.883-1.053 6.67-1.755 15.798-1.053 24.925 0 6.67 3.16 25.277 5.266 27.032-0.351-0.351-0.351-2.106 0-2.106 1.053 2.106-1.404 3.16 0.351 3.511 0-0.702 0.351-0.702 0.702-0.703 3.511 7.723 8.075 19.66 11.585 25.628 4.213 7.723 9.83 14.745 16.149 21.064 0 0.351 0.351 0.351 0.352 0.702 0.702 1.755 3.16 3.862 3.861 5.266 0.351 0.702-0.351 1.755 0 2.458 5.266 9.83 12.989 19.66 22.468 27.383 5.968 7.021 15.447 14.394 27.032 20.713 11.234 5.968 24.223 10.883 36.16 13.691 8.426 2.106 18.606 2.457 24.926 3.862 8.426 1.755 23.17-0.702 30.542-2.107 44.234-6.67 88.117-36.862 110.235-80.393 22.819-43.883 22.117-97.596 2.457-138.671" fill="#f9cc0b" fill-rule="nonzero" stroke="none" stroke-width="1" stroke-linecap="butt" stroke-linejoin="miter" stroke-miterlimit="10" stroke-dasharray="" stroke-dashoffset="0" font-family="none" font-weight="none" font-size="none" text-anchor="none" style="mix-blend-mode: normal" data-fill-palette-color="tertiary"></path></g><g transform="matrix(1,0,0,1,80,159.40812112869924)"><svg viewBox="0 0 160 41.18375774260151" height="41.18375774260151" width="160"><g><svg viewBox="0 0 160 41.18375774260151" height="41.18375774260151" width="160"><g><svg viewBox="0 0 160 41.18375774260151" height="41.18375774260151" width="160"><g><svg viewBox="0 0 160 41.18375774260151" height="41.18375774260151" width="160"><g id="textblocktransform"><svg viewBox="0 0 160 41.18375774260151" height="41.18375774260151" width="160" id="textblock"><g><svg viewBox="0 0 160 41.18375774260151" height="41.18375774260151" width="160"><g transform="matrix(1,0,0,1,0,0)"><svg width="160" viewBox="-0.15000000596046448 -37.349998474121094 145.2899932861328 37.39999771118164" height="41.18375774260151" data-palette-color="#f9cc0b"><path d="M8.5-1.65L-0.15 0.05Q1.35-6.7 2.7-13.15L2.7-13.15Q3.25-15.85 3.85-18.85 4.45-21.85 5-24.75 5.55-27.65 6.05-30.35 6.55-33.05 6.9-35.3L6.9-35.3Q8.35-35.75 9.75-36.08 11.15-36.4 12.63-36.65 14.1-36.9 15.4-36.9L15.4-36.9Q17.65-36.9 19.18-36.15 20.7-35.4 21.65-34.13 22.6-32.85 23-31.15 23.4-29.45 23.4-27.5L23.4-27.5Q23.4-24.7 22.38-22.1 21.35-19.5 19.63-17.48 17.9-15.45 15.68-14.25 13.45-13.05 11.05-13.05L11.05-13.05 10.5-13.05Q10.1-11.35 9.75-9.35 9.4-7.35 9.15-5.65L9.15-5.65Q8.8-3.65 8.5-1.65L8.5-1.65ZM13.8-30.85Q13.25-27.55 12.7-24.6 12.15-21.65 11.5-18.3L11.5-18.3Q12.3-18.5 13.18-19.23 14.05-19.95 14.8-21.13 15.55-22.3 16-23.85 16.45-25.4 16.45-27.1L16.45-27.1Q16.45-28.95 15.63-29.9 14.8-30.85 13.8-30.85L13.8-30.85ZM27.25-2.05L19.15 0.05Q20.5-6.6 21.75-12.95L21.75-12.95Q22.2-15.65 22.75-18.57 23.3-21.5 23.77-24.38 24.25-27.25 24.67-29.93 25.1-32.6 25.35-34.8L25.35-34.8Q28.2-35.7 31.5-36.13 34.8-36.55 38.05-36.55L38.05-36.55Q40-36.55 41.27-36.1 42.55-35.65 43.27-34.83 44-34 44.3-32.9 44.6-31.8 44.6-30.45L44.6-30.45Q44.6-28.45 43.9-26.53 43.2-24.6 42.02-22.88 40.85-21.15 39.32-19.73 37.8-18.3 36.05-17.4L36.05-17.4Q36.95-15.4 37.97-13.03 39-10.65 39.9-8.5L39.9-8.5Q40.9-6 41.95-3.5L41.95-3.5 34.2-0.8Q33.2-4 32.4-6.8L32.4-6.8Q32.05-7.95 31.7-9.18 31.35-10.4 31.05-11.5 30.75-12.6 30.55-13.48 30.35-14.35 30.3-14.9L30.3-14.9 29.65-14.7Q29.35-13.1 28.92-10.95 28.5-8.8 28.15-6.8L28.15-6.8Q27.7-4.45 27.25-2.05L27.25-2.05ZM32.5-29.6L30.9-21.65Q31.85-21.75 33.22-22.45 34.6-23.15 35.85-24.13 37.1-25.1 38-26.15 38.9-27.2 38.9-28L38.9-28Q38.9-28.55 38.55-28.88 38.2-29.2 37.57-29.38 36.95-29.55 36.2-29.6 35.45-29.65 34.65-29.65L34.65-29.65Q34.1-29.65 33.52-29.63 32.95-29.6 32.5-29.6L32.5-29.6ZM59.55-1Q58.3-0.8 56.8-0.55 55.3-0.3 54.1-0.1L54.1-0.1Q54.3-1.75 54.5-3.35L54.5-3.35Q54.65-4.75 54.77-6.15 54.9-7.55 55-8.55L55-8.55 50.65-8.55 48.65-1.35Q47.55-1.2 46.05-1.03 44.55-0.85 43.25-0.7L43.25-0.7Q41.65-0.5 40.1-0.3L40.1-0.3Q42.1-6.95 44.05-13.4L44.05-13.4Q44.85-16.1 45.72-19.05 46.6-22 47.47-24.93 48.35-27.85 49.15-30.55 49.95-33.25 50.55-35.5L50.55-35.5Q53.95-35.75 57.47-36.1 61-36.45 64.34-37.05L64.34-37.05Q64.2-35.45 64.02-33.08 63.85-30.7 63.7-27.9 63.55-25.1 63.4-22.05 63.25-19 63.1-16.05L63.1-16.05Q62.85-9.15 62.55-1.4L62.55-1.4Q61.05-1.15 59.55-1L59.55-1ZM54.95-26.1L51.85-13.55Q52.05-13.55 52.57-13.58 53.1-13.6 53.67-13.63 54.25-13.65 54.75-13.68 55.25-13.7 55.45-13.75L55.45-13.75Q55.45-14.05 55.52-14.78 55.6-15.5 55.67-16.43 55.75-17.35 55.85-18.45 55.95-19.55 56.05-20.6L56.05-20.6Q56.25-23.15 56.55-26.1L56.55-26.1 56.85-30.45 56.1-30.4 54.95-26.1ZM76.29-1.35L67.29 0.05Q68.44-5.45 69.49-10.8L69.49-10.8Q69.94-13.05 70.39-15.5 70.84-17.95 71.27-20.33 71.69-22.7 72.02-24.93 72.34-27.15 72.59-29L72.59-29Q71.44-29.15 70.27-29.1 69.09-29.05 67.94-29.4L67.94-29.4Q67.99-30.2 67.99-31.25 67.99-32.3 68.04-33.35L68.04-33.35Q68.09-34.5 68.14-35.8L68.14-35.8Q69.44-35.7 70.74-35.65 72.04-35.6 73.34-35.6L73.34-35.6Q75.89-35.6 78.27-35.73 80.64-35.85 82.67-36.02 84.69-36.2 86.64-36.45L86.64-36.45 86.09-33.75Q85.84-32.6 85.62-31.4 85.39-30.2 85.19-29.35L85.19-29.35Q84.09-29.05 82.97-28.93 81.84-28.8 80.74-28.6L80.74-28.6Q80.39-26.9 79.99-24.83 79.59-22.75 79.22-20.53 78.84-18.3 78.49-16 78.14-13.7 77.79-11.6L77.79-11.6Q76.99-6.65 76.29-1.35L76.29-1.35ZM97.44-2.45L81.29 0.05 87.84-35.5 103.64-36.85Q103.29-35.75 103.04-34.6L103.04-34.6Q102.79-33.65 102.57-32.63 102.34-31.6 102.19-30.8L102.19-30.8Q101.69-30.75 100.77-30.73 99.84-30.7 98.79-30.68 97.74-30.65 96.67-30.65 95.59-30.65 94.79-30.65L94.79-30.65 93.04-21.7Q94.59-21.8 95.94-21.85L95.94-21.85Q97.04-21.9 98.19-21.9 99.34-21.9 99.89-21.95L99.89-21.95Q99.69-20.55 99.52-19.2 99.34-17.85 99.09-16.45L99.09-16.45Q98.59-16.4 97.47-16.38 96.34-16.35 95.19-16.3L95.19-16.3Q93.89-16.25 92.34-16.2L92.34-16.2 90.64-7 97.94-8.15 97.44-2.45ZM114.49-2.45L98.34 0.05 104.89-35.5 120.69-36.85Q120.34-35.75 120.09-34.6L120.09-34.6Q119.84-33.65 119.61-32.63 119.39-31.6 119.24-30.8L119.24-30.8Q118.74-30.75 117.81-30.73 116.89-30.7 115.84-30.68 114.79-30.65 113.71-30.65 112.64-30.65 111.84-30.65L111.84-30.65 110.09-21.7Q111.64-21.8 112.99-21.85L112.99-21.85Q114.09-21.9 115.24-21.9 116.39-21.9 116.94-21.95L116.94-21.95Q116.74-20.55 116.56-19.2 116.39-17.85 116.14-16.45L116.14-16.45Q115.64-16.4 114.51-16.38 113.39-16.35 112.24-16.3L112.24-16.3Q110.94-16.25 109.39-16.2L109.39-16.2 107.69-7 114.99-8.15 114.49-2.45ZM123.44-1.15L115.34 0.05Q116.84-6.95 118.14-13.55L118.14-13.55Q118.64-16.4 119.19-19.45 119.74-22.5 120.21-25.5 120.69-28.5 121.06-31.33 121.44-34.15 121.64-36.45L121.64-36.45Q122.79-36.35 124.24-36.27 125.69-36.2 126.94-36.1L126.94-36.1Q128.44-36 129.94-36L129.94-36Q129.89-35.8 129.79-35.25 129.69-34.7 129.54-33.93 129.39-33.15 129.21-32.2 129.04-31.25 128.84-30.3L128.84-30.3Q128.44-28.1 127.94-25.35L127.94-25.35 128.24-25.4Q128.74-26.2 129.66-27.63 130.59-29.05 131.59-30.65 132.59-32.25 133.54-33.73 134.49-35.2 135.14-36.25L135.14-36.25Q137.64-36.45 140.14-36.7 142.64-36.95 145.14-37.35L145.14-37.35Q142.79-34.2 140.59-31.15L140.59-31.15Q139.64-29.85 138.66-28.45 137.69-27.05 136.74-25.7 135.79-24.35 134.96-23.1 134.14-21.85 133.49-20.8L133.49-20.8Q134.59-15.75 136.09-11.05 137.59-6.35 139.14-1.45L139.14-1.45Q137.99-1.5 136.79-1.53 135.59-1.55 134.44-1.55L134.44-1.55Q132.99-1.55 131.64-1.53 130.29-1.5 128.84-1.45L128.84-1.45Q128.39-4.7 127.86-8.28 127.34-11.85 126.89-15.1L126.89-15.1 125.99-14.05Q125.64-12.55 125.21-10.35 124.79-8.15 124.39-6.1L124.39-6.1Q123.94-3.7 123.44-1.15L123.44-1.15Z" opacity="1" transform="matrix(1,0,0,1,0,0)" fill="#f9cc0b" class="undefined-text-0" data-fill-palette-color="primary" id="text-0"></path></svg></g></svg></g></svg></g></svg></g><g></g></svg></g></svg></g></svg></g></svg></g><defs></defs></svg><rect width="320" height="360" fill="none" stroke="none" visibility="hidden"></rect></g></svg></g></svg>